<svg id="Group_3_copy_2" data-name="Group 3 copy 2" xmlns="http://www.w3.org/2000/svg" width="50" height="50" viewBox="0 0 50 50">
  <defs>
    <style>
      .cls-1, .cls-2 {
        fill: #8294ca;
      }

      .cls-1 {
        opacity: 0.15;
      }

      .cls-2, .cls-3, .cls-4 {
        fill-rule: evenodd;
      }

      .cls-3 {
        fill: #ffd8b7;
      }

      .cls-4 {
        fill: #4c595f;
      }
    </style>
  </defs>
  <circle id="Ellipse_1_copy_2" data-name="Ellipse 1 copy 2" class="cls-1" cx="25" cy="25" r="25"/>
  <path id="Ellipse_2_copy" data-name="Ellipse 2 copy" class="cls-2" d="M9.008,43.725c1.331-7.418,6.582-14.716,16.018-14.716,9.117,0,14.58,7.2,15.983,14.527C41.2,44.55,33.53,50,25.025,50S8.836,44.68,9.008,43.725Z"/>
  <path class="cls-3" d="M35.166,12.181s0.921,8.756-.812,12.179A4.127,4.127,0,0,1,30.185,26.7v5.266s-5.635,4.587-10.456,0V20.03l-2.437-5.684,5.146-2.706Z"/>
  <path class="cls-4" d="M27.283,13.743c1.786-1.572,5.052.349,8.038-1.863S38,7.224,38,7.224A16.024,16.024,0,0,1,28.318,7.1C22.306,4.949,15.806,6.068,14.78,10.017c-2.751,10.594,2.754,11.041,3.572,15.154s1.637,0.677,1.786-3.979l1-1.863a1.86,1.86,0,0,1-1.786-.931"/>
  <path class="cls-3" d="M22,15.174a2.1,2.1,0,0,0-3,2.23c0,3.338,2.75,2.509,2.75,2.509Z"/>
</svg>
