<svg id="doc" xmlns="http://www.w3.org/2000/svg" width="50" height="50" viewBox="0 0 50 50">
  <defs>
    <style>
      .cls-1 {
        fill: #67c1df;
      }

      .cls-2 {
        fill: #fff;
        fill-rule: evenodd;
      }
    </style>
  </defs>
  <rect id="Rounded_Rectangle_1_copy_3" data-name="Rounded Rectangle 1 copy 3" class="cls-1" width="50" height="50" rx="3" ry="3"/>
  <path id="DOC_copy" data-name="DOC copy" class="cls-2" d="M17.162,21.476a5.284,5.284,0,0,0-3.8-1.292H10.223v9.994h2.83a5.729,5.729,0,0,0,4.057-1.312,4.921,4.921,0,0,0,1.4-3.78A4.752,4.752,0,0,0,17.162,21.476Zm-3.91,6.952H12.342V21.92H13.47q2.844,0,2.844,3.22,0,3.288-3.062,3.288h0Zm14.92-7.075a4.55,4.55,0,0,0-3.524-1.326,4.614,4.614,0,0,0-3.538,1.316,5.37,5.37,0,0,0-1.234,3.811,5.444,5.444,0,0,0,1.231,3.828,4.561,4.561,0,0,0,3.527,1.333,4.562,4.562,0,0,0,3.527-1.333,5.423,5.423,0,0,0,1.23-3.814A5.437,5.437,0,0,0,28.171,21.353ZM22.74,22.641a2.239,2.239,0,0,1,1.907-.851q2.522,0,2.522,3.377t-2.536,3.37a2.224,2.224,0,0,1-1.9-.848,4.175,4.175,0,0,1-.636-2.522A4.157,4.157,0,0,1,22.74,22.641ZM36.5,22a11.363,11.363,0,0,1,1.128.465l0.684-1.723a6.727,6.727,0,0,0-2.926-.7,4.823,4.823,0,0,0-2.492.626,4.1,4.1,0,0,0-1.63,1.8,6.2,6.2,0,0,0-.567,2.731,5.6,5.6,0,0,0,1.155,3.8,4.191,4.191,0,0,0,3.336,1.323,7.081,7.081,0,0,0,2.748-.513V28.024a7.928,7.928,0,0,1-2.55.526q-2.509,0-2.509-3.343a4.183,4.183,0,0,1,.656-2.505,2.159,2.159,0,0,1,1.852-.9A3.367,3.367,0,0,1,36.5,22Z"/>
</svg>
