<svg xmlns="http://www.w3.org/2000/svg" width="40" height="40" viewBox="0 0 40 40">
  <defs>
    <style>
      .cls-1 {
        fill: #19a299;
      }

      .cls-1, .cls-2 {
        fill-rule: evenodd;
      }

      .cls-2 {
        fill: #fff;
      }
    </style>
  </defs>
  <path id="Rounded_Rectangle_1" data-name="Rounded Rectangle 1" class="cls-1" d="M3.591,0.228H36.368a3.414,3.414,0,0,1,3.414,3.414V29.59A3.414,3.414,0,0,1,36.368,33H19.752l-8.365,6.828V33h-7.8A3.414,3.414,0,0,1,.177,29.59V3.642A3.414,3.414,0,0,1,3.591.228Z"/>
  <path id="Rounded_Rectangle_1_copy" data-name="Rounded Rectangle 1 copy" class="cls-2" d="M31.49,6.373H8.32A2.414,2.414,0,0,0,5.906,8.787V22.35A2.414,2.414,0,0,0,8.32,24.763H20.066l5.913,4.827V24.763H31.49A2.414,2.414,0,0,0,33.9,22.35V8.787A2.414,2.414,0,0,0,31.49,6.373Z"/>
  <path class="cls-1" d="M12.938,13.2a2.391,2.391,0,1,1-2.512,2.388A2.452,2.452,0,0,1,12.938,13.2Z"/>
  <path id="Ellipse_1_copy" data-name="Ellipse 1 copy" class="cls-1" d="M19.638,13.2a2.391,2.391,0,1,1-2.512,2.388A2.452,2.452,0,0,1,19.638,13.2Z"/>
  <path id="Ellipse_1_copy_2" data-name="Ellipse 1 copy 2" class="cls-1" d="M26.338,13.2a2.391,2.391,0,1,1-2.512,2.388A2.452,2.452,0,0,1,26.338,13.2Z"/>
</svg>
