<svg xmlns="http://www.w3.org/2000/svg" width="50" height="50" viewBox="0 0 50 50">
  <defs>
    <style>
      .cls-1, .cls-2 {
        fill: #19a299;
      }

      .cls-1 {
        opacity: 0.15;
      }

      .cls-2, .cls-3, .cls-4 {
        fill-rule: evenodd;
      }

      .cls-3 {
        fill: #ffd8b7;
      }

      .cls-4 {
        fill: #4c595f;
      }
    </style>
  </defs>
  <circle id="Ellipse_1_copy_2" data-name="Ellipse 1 copy 2" class="cls-1" cx="25" cy="25" r="25"/>
  <path id="Ellipse_2_copy" data-name="Ellipse 2 copy" class="cls-2" d="M40.992,43.725c-1.331-7.418-6.582-14.716-16.017-14.716-9.117,0-14.58,7.2-15.983,14.527C8.8,44.55,16.47,50,24.975,50S41.164,44.68,40.992,43.725Z"/>
  <path class="cls-3" d="M14.834,12.181s-0.921,8.756.813,12.179A4.127,4.127,0,0,0,19.815,26.7v5.266s5.635,4.587,10.456,0V20.03l2.437-5.684L27.563,11.64Z"/>
  <path class="cls-4" d="M22.717,13.743c-1.786-1.572-5.051.349-8.038-1.863S12,7.224,12,7.224A16.024,16.024,0,0,0,21.682,7.1c6.012-2.147,12.513-1.029,13.538,2.921,2.751,10.594-2.754,11.041-3.572,15.154s-1.637.677-1.786-3.979V19.33a1.86,1.86,0,0,0,1.786-.931"/>
  <path class="cls-3" d="M28,15.174a2.1,2.1,0,0,1,3,2.23c0,3.338-2.75,2.509-2.75,2.509Z"/>
</svg>
