<svg xmlns="http://www.w3.org/2000/svg" width="50" height="50" viewBox="0 0 50 50">
  <defs>
    <style>
      .cls-1 {
        fill: #f27273;
      }

      .cls-2 {
        fill: #fff;
        fill-rule: evenodd;
      }
    </style>
  </defs>
  <rect id="Rounded_Rectangle_1" data-name="Rounded Rectangle 1" class="cls-1" width="50" height="50" rx="3" ry="3"/>
  <path id="PDF" class="cls-2" d="M13.785,21.92h0.964a1.906,1.906,0,0,1,1.275.356,1.386,1.386,0,0,1,.407,1.1,1.352,1.352,0,0,1-.485,1.124,2.322,2.322,0,0,1-1.463.386h-0.7V21.92Zm3.838-.954a4.246,4.246,0,0,0-2.765-.783H11.665v9.994h2.119V26.623h0.909a4.312,4.312,0,0,0,2.868-.854A3.055,3.055,0,0,0,18.57,23.3,2.854,2.854,0,0,0,17.623,20.966Zm9.636,0.509a5.284,5.284,0,0,0-3.8-1.292H20.32v9.994h2.83a5.729,5.729,0,0,0,4.057-1.312,4.921,4.921,0,0,0,1.4-3.78A4.752,4.752,0,0,0,27.258,21.476Zm-3.91,6.952H22.439V21.92h1.128q2.844,0,2.844,3.22,0,3.288-3.062,3.288h0Zm9.154-2.2h3.391V24.5H32.5V21.92h3.644V20.184H30.417v9.994H32.5V26.227Z"/>
</svg>
