<svg xmlns="http://www.w3.org/2000/svg" width="50" height="50" viewBox="0 0 50 50">
  <defs>
    <style>
      .cls-1 {
        fill: #54d898;
      }

      .cls-2 {
        fill: #fff;
        fill-rule: evenodd;
      }
    </style>
  </defs>
  <rect id="Rounded_Rectangle_1_copy_2" data-name="Rounded Rectangle 1 copy 2" class="cls-1" width="50" height="50" rx="3" ry="3"/>
  <path id="XLS_copy" data-name="XLS copy" class="cls-2" d="M17.09,25.14l3.138-4.956H17.944l-2.112,3.6-2.153-3.6H11.341l3.1,4.84-3.315,5.154H13.4l2.324-3.78,2.324,3.78h2.42Zm10.845,5.038v-1.75H23.882V20.184H21.762v9.994h6.173Zm7.14-4.426a5.348,5.348,0,0,0-1.921-1.343,12.761,12.761,0,0,1-1.343-.7,1.426,1.426,0,0,1-.414-0.4,0.905,0.905,0,0,1-.13-0.489,0.924,0.924,0,0,1,.321-0.731,1.363,1.363,0,0,1,.923-0.28,4.262,4.262,0,0,1,1.029.13,10,10,0,0,1,1.323.458l0.684-1.648a10.248,10.248,0,0,0-1.48-.52,5.87,5.87,0,0,0-1.487-.185A3.735,3.735,0,0,0,30.1,20.8a2.583,2.583,0,0,0-.9,2.085,2.634,2.634,0,0,0,.273,1.23,3.1,3.1,0,0,0,.731.923,6.137,6.137,0,0,0,1.374.827,12.422,12.422,0,0,1,1.3.677,1.838,1.838,0,0,1,.482.441,0.876,0.876,0,0,1,.164.523,0.912,0.912,0,0,1-.373.793,1.822,1.822,0,0,1-1.07.267,5.068,5.068,0,0,1-1.282-.184,11.661,11.661,0,0,1-1.712-.636v1.969a6.364,6.364,0,0,0,2.83.6,4.232,4.232,0,0,0,2.711-.779A2.584,2.584,0,0,0,35.6,27.4,2.622,2.622,0,0,0,35.076,25.752Z"/>
</svg>
